<svg width="100" height="101" viewBox="0 0 100 101" fill="none" xmlns="http://www.w3.org/2000/svg">
<path d="M99.5 63.9519L87 40.9936C86.3168 39.7328 85.3057 38.6801 84.0735 37.9467C82.8414 37.2133 81.4339 36.8264 80 36.8269H70.8333C69.7283 36.8269 68.6684 37.2659 67.887 38.0473C67.1056 38.8287 66.6667 39.8885 66.6667 40.9936C66.6667 42.0986 67.1056 43.1584 67.887 43.9398C68.6684 44.7212 69.7283 45.1602 70.8333 45.1602H79.1667C79.3532 45.164 79.5355 45.2158 79.6961 45.3107C79.8567 45.4056 79.9901 45.5403 80.0833 45.7019L89.125 62.3686C89.2164 62.5269 89.2646 62.7065 89.2646 62.8894C89.2646 63.0722 89.2164 63.2519 89.125 63.4102C89.0365 63.5636 88.9088 63.6907 88.7551 63.7785C88.6014 63.8664 88.4271 63.9118 88.25 63.9102H72.9167C71.2591 63.9102 69.6694 64.5687 68.4973 65.7408C67.3251 66.9129 66.6667 68.5026 66.6667 70.1602C66.6667 71.8178 66.0082 73.4075 64.8361 74.5796C63.664 75.7517 62.0743 76.4102 60.4167 76.4102H39.5833C38.7555 76.4103 37.9359 76.2459 37.1722 75.9266C36.4084 75.6073 35.7157 75.1395 35.1342 74.5503C34.5527 73.9611 34.0941 73.2622 33.785 72.4943C33.4758 71.7263 33.3223 70.9046 33.3333 70.0769C33.3333 68.4193 32.6749 66.8296 31.5028 65.6575C30.3306 64.4854 28.7409 63.8269 27.0833 63.8269H11.6667C11.4912 63.8207 11.3199 63.7719 11.1675 63.6848C11.0151 63.5977 10.8861 63.4749 10.7917 63.3269C10.7002 63.1685 10.6521 62.9889 10.6521 62.8061C10.6521 62.6232 10.7002 62.4436 10.7917 62.2852L19.5 45.6186C19.5863 45.4511 19.7181 45.3114 19.8802 45.2156C20.0424 45.1198 20.2284 45.0717 20.4167 45.0769H27.0833C28.1884 45.0769 29.2482 44.6379 30.0296 43.8565C30.811 43.0751 31.25 42.0153 31.25 40.9102C31.25 39.8052 30.811 38.7453 30.0296 37.9639C29.2482 37.1825 28.1884 36.7436 27.0833 36.7436H19.75C18.3161 36.743 16.9086 37.1299 15.6765 37.8633C14.4443 38.5968 13.4332 39.6495 12.75 40.9102L0.5 63.9519C0.220653 64.5706 0.051447 65.2333 0 65.9102V90.9102C0 92.5678 0.65848 94.1575 1.83058 95.3296C3.00268 96.5017 4.5924 97.1602 6.25 97.1602H93.75C95.4076 97.1602 96.9973 96.5017 98.1694 95.3296C99.3415 94.1575 100 92.5678 100 90.9102V65.9102C99.9684 65.2302 99.7982 64.5638 99.5 63.9519Z" fill="white"/>
<path d="M63.9583 19.9519L52.5 4.66023C52.2112 4.26968 51.8342 3.95289 51.3998 3.73567C50.9653 3.51845 50.4857 3.40694 50 3.41023C49.5149 3.41023 49.0364 3.52318 48.6025 3.74014C48.1685 3.9571 47.7911 4.27211 47.5 4.66023L36.0417 19.9519C35.6939 20.4121 35.4822 20.9606 35.4307 21.5351C35.3791 22.1097 35.4897 22.6871 35.75 23.2019C36.0061 23.7247 36.4032 24.1655 36.8965 24.4747C37.3897 24.7839 37.9595 24.9492 38.5417 24.9519H42.7083C42.9846 24.9519 43.2496 25.0616 43.4449 25.257C43.6403 25.4523 43.75 25.7173 43.75 25.9936V41.6186C43.75 43.2762 44.4085 44.8659 45.5806 46.038C46.7527 47.2101 48.3424 47.8686 50 47.8686C51.6576 47.8686 53.2473 47.2101 54.4194 46.038C55.5915 44.8659 56.25 43.2762 56.25 41.6186V25.9936C56.25 25.7173 56.3597 25.4523 56.5551 25.257C56.7504 25.0616 57.0154 24.9519 57.2917 24.9519H61.4583C62.0387 24.9519 62.6076 24.7903 63.1012 24.4852C63.5949 24.1801 63.9939 23.7435 64.2534 23.2244C64.513 22.7054 64.6228 22.1243 64.5707 21.5463C64.5186 20.9682 64.3065 20.4162 63.9583 19.9519Z" fill="white"/>
</svg>
